<svg width="192" height="60" viewBox="0 0 192 60" fill="none" xmlns="http://www.w3.org/2000/svg">
<path d="M74.7444 41.5618C72.9854 41.5618 71.3014 41.3151 69.6926 40.8217C68.0837 40.3069 66.8074 39.6526 65.8635 38.8589L67.3115 35.609C68.2124 36.3169 69.3279 36.9068 70.6579 37.3787C71.9879 37.8507 73.35 38.0866 74.7444 38.0866C75.9242 38.0866 76.8788 37.9579 77.6081 37.7005C78.3375 37.4431 78.8738 37.0999 79.217 36.6708C79.5602 36.2204 79.7318 35.7163 79.7318 35.1585C79.7318 34.4721 79.4851 33.9251 78.9917 33.5175C78.4984 33.0885 77.8548 32.756 77.0611 32.52C76.2889 32.2626 75.4201 32.0266 74.4548 31.8121C73.5109 31.5976 72.5563 31.3509 71.591 31.072C70.6472 30.7717 69.7784 30.3963 68.9847 29.9458C68.2124 29.4739 67.5796 28.8518 67.0862 28.0796C66.5928 27.3073 66.3462 26.3206 66.3462 25.1193C66.3462 23.8965 66.6679 22.7811 67.3115 21.7729C67.9765 20.7432 68.974 19.928 70.3039 19.3274C71.6554 18.7053 73.3608 18.3943 75.4201 18.3943C76.7715 18.3943 78.1122 18.5659 79.4422 18.9091C80.7722 19.2523 81.9306 19.7457 82.9174 20.3892L81.5981 23.6391C80.5899 23.0385 79.5495 22.5987 78.4769 22.3199C77.4043 22.0195 76.3747 21.8694 75.3879 21.8694C74.2295 21.8694 73.2857 22.0088 72.5563 22.2877C71.8484 22.5666 71.3229 22.9312 70.9797 23.3817C70.6579 23.8322 70.497 24.347 70.497 24.9262C70.497 25.6127 70.733 26.1704 71.2049 26.5994C71.6983 27.007 72.3311 27.3288 73.1033 27.5647C73.897 27.8007 74.7766 28.0367 75.7419 28.2726C76.7072 28.4871 77.6618 28.7338 78.6056 29.0127C79.5709 29.2916 80.4397 29.6562 81.212 30.1067C82.0057 30.5572 82.6385 31.1686 83.1104 31.9408C83.6038 32.7131 83.8505 33.6891 83.8505 34.8689C83.8505 36.0702 83.518 37.1857 82.853 38.2153C82.2095 39.2236 81.212 40.0387 79.8605 40.6608C78.5091 41.2614 76.8037 41.5618 74.7444 41.5618ZM88.7138 47.7076C87.8771 47.7076 87.0405 47.5681 86.2039 47.2893C85.3673 47.0104 84.6702 46.6243 84.1124 46.1309L85.7213 43.1706C86.1289 43.5353 86.5901 43.8249 87.1049 44.0394C87.6197 44.2539 88.1453 44.3612 88.6816 44.3612C89.4109 44.3612 90.0008 44.1788 90.4513 43.8142C90.9018 43.4495 91.3201 42.8381 91.7062 41.9801L92.7037 39.7277L93.0255 39.245L99.5252 24.0574H103.386L95.3422 42.6236C94.8059 43.9107 94.2053 44.9296 93.5403 45.6804C92.8968 46.4312 92.1674 46.9568 91.3523 47.2571C90.5586 47.5574 89.6791 47.7076 88.7138 47.7076ZM92.2532 41.8514L84.4986 24.0574H88.6816L94.9883 38.8911L92.2532 41.8514ZM115.65 23.8644C117.023 23.8644 118.246 24.1325 119.318 24.6688C120.412 25.2051 121.27 26.031 121.892 27.1464C122.514 28.2405 122.825 29.6562 122.825 31.3938V41.24H118.803V31.9086C118.803 30.3856 118.439 29.2487 117.709 28.4979C117.001 27.7471 116.004 27.3717 114.717 27.3717C113.773 27.3717 112.936 27.5647 112.207 27.9509C111.478 28.337 110.909 28.9162 110.502 29.6884C110.116 30.4392 109.922 31.3938 109.922 32.5522V41.24H105.9V24.0574H109.729V28.6909L109.054 27.2751C109.654 26.1811 110.523 25.3445 111.66 24.7653C112.818 24.1647 114.148 23.8644 115.65 23.8644ZM135.843 41.4652C134.041 41.4652 132.432 41.0898 131.016 40.339C129.622 39.5668 128.528 38.5157 127.734 37.1857C126.94 35.8557 126.543 34.3434 126.543 32.6487C126.543 30.9326 126.94 29.4203 127.734 28.1117C128.528 26.7818 129.622 25.7414 131.016 24.9906C132.432 24.2398 134.041 23.8644 135.843 23.8644C137.516 23.8644 138.985 24.2076 140.251 24.894C141.538 25.559 142.514 26.5458 143.179 27.8543L140.09 29.6562C139.575 28.8411 138.942 28.2405 138.192 27.8543C137.462 27.4682 136.668 27.2751 135.81 27.2751C134.824 27.2751 133.933 27.4897 133.14 27.9187C132.346 28.3477 131.724 28.9698 131.273 29.785C130.823 30.5787 130.598 31.5332 130.598 32.6487C130.598 33.7642 130.823 34.7295 131.273 35.5446C131.724 36.3383 132.346 36.9497 133.14 37.3787C133.933 37.8078 134.824 38.0223 135.81 38.0223C136.668 38.0223 137.462 37.8292 138.192 37.4431C138.942 37.057 139.575 36.4563 140.09 35.6412L143.179 37.4431C142.514 38.7302 141.538 39.7277 140.251 40.4356C138.985 41.122 137.516 41.4652 135.843 41.4652Z" fill="white"/>
<path d="M156.727 41.5618C153.638 41.5618 151.214 40.693 149.455 38.9554C147.718 37.2179 146.849 34.708 146.849 31.426V18.716H151.032V31.2651C151.032 33.5818 151.525 35.2658 152.512 36.3169C153.52 37.368 154.936 37.8936 156.759 37.8936C158.583 37.8936 159.988 37.368 160.975 36.3169C161.961 35.2658 162.455 33.5818 162.455 31.2651V18.716H166.573V31.426C166.573 34.708 165.694 37.2179 163.935 38.9554C162.197 40.693 159.795 41.5618 156.727 41.5618ZM181.57 41.4652C180.176 41.4652 178.899 41.1435 177.741 40.4999C176.604 39.8564 175.692 38.8911 175.006 37.604C174.341 36.2954 174.008 34.6437 174.008 32.6487C174.008 30.6323 174.33 28.9805 174.974 27.6934C175.639 26.4064 176.54 25.4518 177.677 24.8297C178.813 24.1861 180.111 23.8644 181.57 23.8644C183.265 23.8644 184.756 24.229 186.043 24.9584C187.351 25.6877 188.381 26.7067 189.132 28.0152C189.904 29.3237 190.29 30.8682 190.29 32.6487C190.29 34.4292 189.904 35.9844 189.132 37.3144C188.381 38.6229 187.351 39.6419 186.043 40.3712C184.756 41.1006 183.265 41.4652 181.57 41.4652ZM172.046 47.4823V24.0574H175.875V28.1117L175.746 32.6809L176.068 37.25V47.4823H172.046ZM181.12 38.0223C182.085 38.0223 182.943 37.8078 183.694 37.3787C184.466 36.9497 185.077 36.3276 185.528 35.5125C185.978 34.6973 186.203 33.7427 186.203 32.6487C186.203 31.5332 185.978 30.5787 185.528 29.785C185.077 28.9698 184.466 28.3477 183.694 27.9187C182.943 27.4897 182.085 27.2751 181.12 27.2751C180.154 27.2751 179.285 27.4897 178.513 27.9187C177.741 28.3477 177.13 28.9698 176.679 29.785C176.229 30.5787 176.003 31.5332 176.003 32.6487C176.003 33.7427 176.229 34.6973 176.679 35.5125C177.13 36.3276 177.741 36.9497 178.513 37.3787C179.285 37.8078 180.154 38.0223 181.12 38.0223Z" fill="black" fill-opacity="0.8"/>
<rect opacity="0.3" width="51.4106" height="51.3797" rx="10.3797" transform="matrix(0.984827 0.173541 -0.173756 0.984789 8.92755 0.23999)" fill="black"/>
<rect x="6.64392" y="6.87958" width="46.2704" height="46.2409" rx="10.3797" fill="black" fill-opacity="0.8"/>
<path d="M15.6407 34.7063C18.0827 32.1802 24.3637 29.4534 29.3933 33.9358C35.1771 39.0904 41.2179 39.6335 43.9171 36.7615" stroke="white" stroke-width="1.29746"/>
<path d="M15.6407 29.5684C18.0827 27.0423 24.3637 24.3155 29.3933 28.798C35.1771 33.9525 41.2179 34.4957 43.9171 31.6236" stroke="white" stroke-width="1.29746"/>
<path d="M15.6407 24.4306C18.0827 21.9044 24.3637 19.1777 29.3933 23.6601C35.1771 28.8146 41.2179 29.3578 43.9171 26.4857" stroke="white" stroke-width="1.29746"/>
</svg>
